<svg xmlns="http://www.w3.org/2000/svg" xmlns:xlink="http://www.w3.org/1999/xlink" width="2000" height="2000" viewBox="0 0 2000 2000">
  <defs>
    <clipPath id="a">
      <circle cx="1276.311" cy="702.689" r="52.842" fill="none"/>
    </clipPath>
  </defs>
  <g>
    <g>
      <path d="M1687.43,893.505a593.511,593.511,0,0,1-593.982,593.982,598.906,598.906,0,0,1-67.029-3.746,590.278,590.278,0,0,1-259.806-94.182H766.6A596.8,596.8,0,0,1,573.522,1180.93v-.013a590.411,590.411,0,0,1-73.553-263.024q-.51-12.144-.5-24.388A593.987,593.987,0,0,1,1686.6,861.851Q1687.431,877.577,1687.43,893.505Z" fill="#fff0e3"/>
      <path d="M1124.564,692.843a1007.607,1007.607,0,0,1-275.578-38.314,983.051,983.051,0,0,1-240.01-104.157l4.593-7.6A974.172,974.172,0,0,0,851.41,645.982c122.844,34.839,250.191,45.782,378.505,32.52,126.366-13.059,248.617-49.016,363.357-106.872l4,7.932c-115.709,58.346-239,94.607-366.443,107.778A1033.647,1033.647,0,0,1,1124.564,692.843Z" fill="#fff"/>
      <path d="M1093.448,1491.93a606.241,606.241,0,0,1-67.526-3.773l-4.167-.47.229-4.187c4.72-86.606,28.89-176.777,69.9-260.766,41.382-84.757,97.877-158.912,163.375-214.449,56.3-47.739,125.26-87.2,199.438-114.128,78.377-28.448,158.666-41.149,232.172-36.74l3.962.238.209,3.962c.554,10.509.836,21.238.836,31.888a597.959,597.959,0,0,1-598.425,598.425Zm-62.348-12.147a597.831,597.831,0,0,0,62.348,3.262,589.032,589.032,0,0,0,589.54-589.54c0-9.154-.211-18.366-.627-27.441-71.225-3.653-148.8,8.921-224.636,36.444C1384.528,929.076,1316.5,968,1261,1015.061c-64.569,54.749-120.29,127.909-161.137,211.571C1060.036,1308.205,1036.3,1395.638,1031.1,1479.783Z" fill="#fff"/>
      <path d="M1155.79,436.389a364.958,364.958,0,0,1-79.651-8.706c-63.625-14.195-132.516-48.083-184.286-90.649l-6.067-4.989,7.4-2.629a600.078,600.078,0,0,1,482.936,36.516l6.961,3.739-6.813,4c-43.376,25.493-91.356,44.2-138.751,54.093A399.577,399.577,0,0,1,1155.79,436.389ZM903.7,335.167c49.963,39.372,114.549,70.5,174.37,83.845,50.649,11.3,103.684,11.322,157.632.06,43.949-9.176,88.426-26.088,129.124-49.058A591.35,591.35,0,0,0,903.7,335.167Z" fill="#fff"/>
      <path d="M768.6,1394h-3.336l-1.113-.735a602.989,602.989,0,0,1-194.517-210.184l-.556-1.019a590.9,590.9,0,0,1-73.55-263.991c-.336-8.02-.506-16.287-.506-24.567a598.95,598.95,0,0,1,23.519-166.62l.962-3.323,3.458.119c61.343,2.118,126.573,19.6,183.674,49.234,63.611,33.01,114.787,79.567,147.993,134.639,44.874,74.412,56.674,164.2,34.122,259.642-18.839,79.735-62.149,161.862-118.825,225.321ZM577.964,1179.78a594.182,594.182,0,0,0,187.884,203.944c54.469-61.984,96.032-141.431,114.258-218.571,22.006-93.139,10.566-180.629-33.083-253.012C814.661,858.473,764.7,813.056,702.545,780.8c-54.877-28.477-117.388-45.5-176.424-48.105a590.184,590.184,0,0,0-22.213,160.809c0,8.156.168,16.3.5,24.2a582.139,582.139,0,0,0,73,261.057Z" fill="#fff"/>
      <path d="M572.679,1188.56l-3.043-5.49a590.947,590.947,0,0,1-74.106-265l-.243-6.032,5.831,1.562c43.887,11.756,96.878,49.7,116.329,107.978,17.7,53.005,2.52,113.672-40.6,162.284ZM504.688,923.9a581.7,581.7,0,0,0,69.651,249.253c37.812-45.341,50.787-100.526,34.681-148.762C591.472,971.82,545.02,936.716,504.688,923.9Z" fill="#fff"/>
      <path d="M1058.093,952.079a94.628,94.628,0,0,1-17.013-1.4c-12.449-2.291-21.059-7.212-25.591-14.626-5.264-8.611-5.146-21.12.339-36.177,7-19.217,22.243-41.124,41.819-60.105,15.408-14.939,40.642-35.049,73.359-46.015h0c39.69-13.3,104.755-16.1,118.58,13.654s-31.813,75.743-57.88,95.9c-21.814,16.866-49.784,30.971-78.758,39.717C1093.244,948.97,1074.115,952.079,1058.093,952.079Zm75.737-149.9c-52.018,17.435-96.6,64.911-109.655,100.737-4.462,12.248-4.855,22.37-1.106,28.5,3.115,5.1,9.9,8.735,19.618,10.523,32.842,6.045,97.07-9.7,143.584-45.662,15.835-12.243,31.551-28.106,42.041-42.432,9.226-12.6,19.008-30.234,13.218-42.693-10.207-21.961-66.276-22.858-107.7-8.974Z" fill="#fff"/>
      <path d="M1317.318,1448.656l-1.407-4.713a231.548,231.548,0,0,1-5.576-22.88c-11.113-58.543,2.046-117.848,38.052-171.508,29.52-43.993,73.8-82.665,121.491-106.1a404.581,404.581,0,0,1,64.025-23.969c44.309-12.379,81.553-14.1,110.7-5.128l4.647,1.431-1.844,4.5a600.407,600.407,0,0,1-325.541,326.49Zm286.672-331c-60.6,0-126.821,32.114-130.195,33.771-46.332,22.768-89.353,60.34-118.031,103.077-34.677,51.68-47.369,108.7-36.7,164.9,1.1,5.785,2.443,11.565,4,17.242a591.6,591.6,0,0,0,314.213-315.127A134.293,134.293,0,0,0,1603.99,1117.657Z" fill="#fff"/>
      <path d="M768.586,495.5c-30.584,0-65.933-5.966-98.384-15.78l-7.062-2.135,5.192-5.243A599.023,599.023,0,0,1,812.1,365.222l3.225-1.721,2.309,2.835C847.512,403,857.944,448.06,841.9,471.139,829.968,488.312,802.146,495.5,768.586,495.5Zm-88.638-22.193c31.343,8.791,64.282,13.607,91.409,13.333,31.8-.338,54.267-7.643,63.251-20.571h0c13.246-19.058,3.735-58.615-21.58-91.256A589.9,589.9,0,0,0,679.948,473.306Z" fill="#fff"/>
    </g>
    <g>
      <polygon points="354.785 1694.955 342.966 1692.54 409.817 1365.377 443.938 1372.349 354.785 1694.955" fill="#fdab71"/>
      <polygon points="502.589 1692.416 490.769 1690.001 557.62 1362.838 591.742 1369.811 502.589 1692.416" fill="#e28f59"/>
      <polygon points="723.643 1683.876 735.608 1682.333 692.914 1351.151 658.374 1355.603 723.643 1683.876" fill="#fdab71"/>
      <polygon points="853.096 1683.817 865.061 1682.275 818.816 1323.542 784.275 1327.995 853.096 1683.817" fill="#e28f59"/>
      <polygon points="421.618 1341.919 360.583 1082.165 421.618 1082.165 442.909 1341.919 421.618 1341.919" fill="#fdab71"/>
      <polygon points="522.397 1327.725 474.137 1060.873 522.397 1060.873 543.688 1327.725 522.397 1327.725" fill="#fdab71"/>
      <path d="M331.568,934.34a25.393,25.393,0,0,1,12.6-19.786c42.736-24.32,153.475-28.776,171.931-6.629,20.486,24.584,49.49,161.544,42,180.278-10.243,25.607-106.527,58.385-177.2,32.778C321.079,1099.311,328.019,972.751,331.568,934.34Z" fill="#eeedff"/>
      <path d="M350.807,911.178c26.906-1.722,92.563,191.365,30.081,209.8-57.05,16.834-67.988-114.063-64.78-179.054a30.878,30.878,0,0,1,19.647-27.34A51.4,51.4,0,0,1,350.807,911.178Z" fill="#b0b0d6"/>
      <path d="M652.4,1299.43s69.215.625,127.015-20.99c21.513-8.045,45.4,6.131,47.4,29.012.776,8.9-1.816,18.682-10.6,28.632-30.729,34.827-170.866,53.116-170.866,53.116Z" fill="#eeedff"/>
      <path d="M393.179,1315.6s113.537,7.3,246.8-15.627c51-8.774,72.567,63.531,24.776,83.388q-1.071.446-2.185.868c-59.41,22.534-235.59,12.291-269.393-10.243S373.788,1314.828,393.179,1315.6Z" fill="#b0b0d6"/>
    </g>
    <rect x="759.21" y="299.523" width="1073.79" height="719.671" rx="70.976" fill="#494e6d"/>
    <g>
      <rect x="805.341" y="337.542" width="982.355" height="643.633" rx="45.907" fill="#fff"/>
      <path d="M1741.789,982.444H851.248a47.23,47.23,0,0,1-47.176-47.176V383.449a47.23,47.23,0,0,1,47.176-47.177h890.541a47.23,47.23,0,0,1,47.177,47.177V935.268A47.23,47.23,0,0,1,1741.789,982.444ZM851.248,338.811a44.689,44.689,0,0,0-44.638,44.638V935.268a44.689,44.689,0,0,0,44.638,44.638h890.541a44.689,44.689,0,0,0,44.638-44.638V383.449a44.688,44.688,0,0,0-44.638-44.638Z" fill="#251138"/>
    </g>
    <path d="M1296.357,763.617q-11.106,0-18.423-7.083a23.734,23.734,0,0,1-7.317-17.823q0-19.044,10.1-41.751t31.3-40.287q14.122-11.721,25.995-23.2a94.232,94.232,0,0,0,19.179-26.37q7.313-14.889,7.321-36.379a60.029,60.029,0,0,0-29.027-51.519q-13.887-8.538-34.068-8.546-24.739,0-40.885,8.79a55.86,55.86,0,0,0-23.977,24.416q-7.83,15.633-7.823,36.625a24.189,24.189,0,0,1-7.067,17.823q-7.077,7.086-18.677,7.081-11.108,0-18.423-7.081a23.736,23.736,0,0,1-7.321-17.823q0-34.176,15.4-60.064t43.407-40.775q28.017-14.89,65.368-14.894,32.8,0,58.3,13.429a104.1,104.1,0,0,1,40.379,37.113q14.882,23.69,14.89,55.425,0,27.353-9.085,47.368a123.45,123.45,0,0,1-24.733,35.891,358.434,358.434,0,0,1-35.839,31.5,52.589,52.589,0,0,0-18.172,26.613q-5.049,16.368-5.046,26.614a24.189,24.189,0,0,1-7.066,17.823Q1307.958,763.62,1296.357,763.617Zm0,90.339a34.007,34.007,0,0,1-24.479-10.011q-10.355-10-10.349-23.683a32.4,32.4,0,0,1,10.349-24.173,34.035,34.035,0,0,1,24.479-10.011,34.666,34.666,0,0,1,24.988,10.011,32.436,32.436,0,0,1,10.346,24.173q0,13.676-10.346,23.683A34.637,34.637,0,0,1,1296.357,853.956Z" fill="#5f6386"/>
    <g>
      <path d="M1536.475,1260.733c-66.581-21.5-125,165.776-105.494,284.568l36.347,8.865S1621.579,1288.215,1536.475,1260.733Z" fill="#5f6386"/>
      <path d="M1448.712,1555.4a1.235,1.235,0,0,1-1.185-1.569l75.352-265.064a1.231,1.231,0,0,1,2.369.673L1449.9,1554.5A1.233,1.233,0,0,1,1448.712,1555.4Z" fill="#fff"/>
      <path d="M1334.884,1313.124c-82.258,35.9,57.946,264.2,109.971,243.911C1444.855,1557.035,1426.232,1273.262,1334.884,1313.124Z" fill="#9fa3bf"/>
      <path d="M1457.04,1579.931a1.1,1.1,0,0,1-1.1-.591l-109.642-212.855a1.1,1.1,0,0,1,1.96-1.01L1457.9,1578.33a1.1,1.1,0,0,1-.856,1.6Z" fill="#fff"/>
      <path d="M1511.881,1497.478v128.543a78.9,78.9,0,1,1-157.8,0V1497.478Z" fill="#c7c7e3"/>
    </g>
    <path d="M1670.881,1523.246l-12.827,8.478a7.65,7.65,0,0,1-11.854-5.921l-.929-15.347-.928-15.347a7.651,7.651,0,0,1,11.055-7.306l13.755,6.87,13.755,6.869a7.651,7.651,0,0,1,.8,13.227Z" fill="#9fa3bf"/>
    <path d="M1810.135,1350.415h-92.618c-12,0-20.537-11.931-16.374-23.182a66.841,66.841,0,0,1,125.365,0C1830.671,1338.484,1822.131,1350.415,1810.135,1350.415Z" fill="#fff0e3"/>
    <path d="M401.018,648.027l-2.884-92.574c-.374-11.99,11.285-20.9,22.66-17.087a66.841,66.841,0,0,1,3.9,125.3C413.582,668.182,401.391,660.017,401.018,648.027Z" fill="#fff0e3"/>
    <path d="M214.828,745.572l10.6,16.978a9.959,9.959,0,0,1-8.1,15.229l-20,.694-20,.694a9.96,9.96,0,0,1-9.138-14.632l9.4-17.671,9.4-17.671a9.96,9.96,0,0,1,17.241-.6Z" fill="#9fa3bf"/>
    <circle cx="466.57" cy="365.589" r="22.913" fill="#9fa3bf"/>
    <g>
      <g>
        <g>
          <path d="M538.81,1543.748h19.055a11.553,11.553,0,0,1,11.553,11.553v43.594a0,0,0,0,1,0,0H527.257a0,0,0,0,1,0,0V1555.3a11.553,11.553,0,0,1,11.553-11.553Z" transform="translate(233.388 3205.498) rotate(-149.854)" fill="#fb855f"/>
          <path d="M849.167,1610.1h19.055a11.553,11.553,0,0,1,11.553,11.553v43.594a0,0,0,0,1,0,0H837.614a0,0,0,0,1,0,0v-43.594A11.553,11.553,0,0,1,849.167,1610.1Z" transform="translate(1769.803 3246.766) rotate(178.15)" fill="#fb855f"/>
          <path d="M869.069,1313.283h0a58.233,58.233,0,0,0,56.367-56.814c3-130.8,1.854-264.647-4.373-362.647l-127.429,4.115c7.635,111.614,12.824,241.61,15.3,358.344A58.259,58.259,0,0,0,869.069,1313.283Z" fill="#494e6d"/>
          <path d="M865.492,1201.022h0a58.038,58.038,0,0,1,59.9,59.591c-3.094,112.747-7.376,277.52-10.039,349.832l-98.606,3.184c1.26-82.33-5.37-250.821-7.417-353.451A58.034,58.034,0,0,1,865.492,1201.022Z" fill="#494e6d"/>
          <path d="M661.557,1279.47h0a58.233,58.233,0,0,0,67.324-43.273c31.228-127.05,59.068-257.978,74.191-355l-125.3-23.552c-16.694,110.622-39.753,238.662-62.587,353.167A58.26,58.26,0,0,0,661.557,1279.47Z" fill="#494e6d"/>
          <path d="M688.24,1180.958h0a58.037,58.037,0,0,1,36.791,76.062c-40.249,105.363-98.845,259.426-125.3,326.777l-94.1-29.643c28.448-77.269,77.979-238.453,110.027-335.971A58.034,58.034,0,0,1,688.24,1180.958Z" fill="#494e6d"/>
          <polygon points="860.858 1025.799 750.621 1024.351 782.09 913.144 834.384 903.942 860.858 1025.799" fill="#494e6d"/>
          <polygon points="791.681 974.204 791.388 971.683 820.017 968.363 809.161 898.65 811.67 898.26 822.931 970.58 791.681 974.204" fill="#251138"/>
          <polygon points="924.5 1006.329 909.677 994.033 901.481 894.397 904.011 894.189 912.119 992.761 926.122 1004.376 924.5 1006.329" fill="#251138"/>
          <polygon points="652.994 1013.687 652.143 1011.296 672.105 1004.19 693.663 901.507 696.147 902.029 674.296 1006.104 652.994 1013.687" fill="#251138"/>
          <polygon points="915.353 1610.445 917.531 1578.681 819.843 1578.079 816.747 1613.629 915.353 1610.445" fill="#251138"/>
          <polygon points="613.431 1548.081 599.731 1583.797 505.632 1554.154 519.692 1518.385 613.431 1548.081" fill="#251138"/>
          <path d="M878.435,1642.852l100.891,16.782a13.9,13.9,0,0,1,11.611,13.261h0a13.9,13.9,0,0,1-13.443,14.341l-142.529,4.6,1.347-47.12Z" fill="#251138"/>
          <path d="M562.333,1586.177l76.673,67.69a13.9,13.9,0,0,1,2.82,17.4h0a13.9,13.9,0,0,1-19,5.038L499.511,1604.69l26.109-39.249Z" fill="#251138"/>
        </g>
        <path d="M1223.059,820.442c.512-11.191-19.2-17.728-36.276-21.612,7.308-6.129,12.933-13.894,11.042-17.863-2.718-5.7-19.922-1.4-30.946,3.855a41.478,41.478,0,0,0-5.633,3.24,26.118,26.118,0,0,0-15.263,47.668,39.736,39.736,0,0,0,20.18,10.036C1184.163,849.153,1221.9,845.856,1223.059,820.442Z" fill="#fb855f"/>
        <path d="M1162.314,787.262,1153.4,842.8l-25.268.031-205.749.185a48.913,48.913,0,0,1-7.466-.679,50.621,50.621,0,0,1,8.114-100.576,51.661,51.661,0,0,1,8.114.648l16.66,3.239,4.257.833,9.965,1.913,176.07,34.184Z" fill="#ffaa40"/>
        <path d="M922.134,841.469l-.309.061a44.264,44.264,0,0,1-6.91.8,47.277,47.277,0,0,1-46.771-31.746l-58-166.753a60.28,60.28,0,1,1,116.125-31.222l24.28,126,1.512,7.867,1.974,10.243L959.68,786A47.374,47.374,0,0,1,922.134,841.469Z" fill="#ffaa40"/>
        <path d="M921.587,893.053c-41.28,71.39-142.319,2.745-248.757,0V570.5c51.4-38.873,150.093-39.274,222.039,0Z" fill="#ffaa40"/>
        <ellipse cx="737.244" cy="430.354" rx="4.203" ry="12.487" transform="translate(214.249 1105.047) rotate(-82.492)" fill="#8e3332"/>
        <ellipse cx="737.244" cy="430.354" rx="2.877" ry="12.487" transform="translate(-97.256 250.514) rotate(-18.112)" fill="#8e3332"/>
        <path d="M820.243,552.787c-.935,15.572-6.172,33.481-25.484,32.545-33.854-1.636-42.037-37.22-42.037-37.22s2.759-50.922,3.554-51.436h62.892v33.9A109.7,109.7,0,0,1,820.243,552.787Z" fill="#fb855f"/>
        <path d="M820.243,552.787c-48.677-10.1-55.6-35.771-55.6-35.771l48.911-20.34h5.611v33.9A109.7,109.7,0,0,1,820.243,552.787Z" fill="#e56542"/>
        <path d="M747.051,478.221s14.6,71.333,69.013,56.728a36.21,36.21,0,0,0,16.342-9.428,33.4,33.4,0,0,0,8.512-14.606c5.476-19.781,4.5-52.077-1.389-94.255l-92.478,7.865Z" fill="#fb855f"/>
        <path d="M768.881,452.535c43.23,7.58,78.818-3.194,88.134-29.254a15.714,15.714,0,0,0-15.205-20.948c-19.868.535-53.542,7.757-86.345,13.574a27.367,27.367,0,0,0-7.066,2.257c-19.169,9.2-24.558,26.72-20.209,50.11,7.358,34.76,18.686,41.009,30.9,40.882C758.324,488.427,774.157,472.1,768.881,452.535Z" fill="#8e3332"/>
        <ellipse cx="753.469" cy="487.623" rx="14.464" ry="18.622" fill="#fb855f"/>
        <path d="M743.6,484.749c-.2.1,10.173-10.964,17.97,1.462C761.571,486.211,750.241,481.338,743.6,484.749Z" fill="#e56542"/>
        <path d="M738.166,670.119l-100.7,75.309-4.628,3.455-4.72,3.548-31.376,23.447a47.323,47.323,0,0,1-66.27-9.564l-.185-.247a47.387,47.387,0,0,1,4.412-61.826l124.7-124.95a60.268,60.268,0,1,1,78.765,90.828Z" fill="#ffaa40"/>
        <path d="M732.341,994.093c9.176-6.426,2.324-26.028-5.024-41.926,9.316,2.047,18.9,1.763,20.889-2.157,2.859-5.635-11.053-16.634-21.943-22.16a41.531,41.531,0,0,0-6-2.484,26.119,26.119,0,0,0-47.075,17.006,39.734,39.734,0,0,0,4.369,22.11C685.856,980.808,711.5,1008.685,732.341,994.093Z" fill="#fb855f"/>
        <path d="M721.537,925.725l-49.425,26.84-16.228-21.041L530.935,769.708a50.68,50.68,0,0,1,40.509-80.986,50.587,50.587,0,0,1,44.518,26.5L631.2,745.613l1.635,3.27,2.869,5.738,72.378,144.263Z" fill="#ffaa40"/>
        <path d="M793.307,585.555c-36.941,0-45.236-42.145-45.316-42.574l2.5-.467c.078.412,8.075,41.131,43.688,40.5,7.218-.134,24.228-4.091,26.255-37.849l2.533.152c-.43,7.171-1.929,17.516-6.624,26.075-5.055,9.217-12.5,13.981-22.117,14.16C793.915,585.553,793.61,585.555,793.307,585.555Z" fill="#251138"/>
        <rect x="798.795" y="584.174" width="2.539" height="330.738" transform="matrix(0.999, -0.035, 0.035, 0.999, -26.087, 28.855)" fill="#251138"/>
        <circle cx="806.781" cy="623.918" r="3.555"/>
        <circle cx="809.485" cy="675.209" r="3.555"/>
        <circle cx="812.189" cy="726.5" r="3.555"/>
        <circle cx="814.894" cy="777.791" r="3.555"/>
        <circle cx="817.598" cy="829.082" r="3.555"/>
        <circle cx="820.302" cy="880.373" r="3.555" fill="#001065"/>
        <polygon points="1162.322 787.262 1153.406 842.795 1128.138 842.826 1138.103 782.573 1162.322 787.262" fill="#ffaa40"/>
        <path d="M721.545,925.725l-49.424,26.84-16.228-21.041c12.957-8.329,50.01-31.993,52.2-32.64Z" fill="#ffaa40"/>
        <rect x="663.537" y="709.472" width="32.308" height="2.538" transform="translate(-303.493 688.786) rotate(-45)" fill="#251138"/>
        <rect x="611.155" y="743.74" width="22.845" height="2.538" fill="#251138"/>
      </g>
      <g>
        <rect x="1219.767" y="749.322" width="17.778" height="21.395" transform="translate(694.22 -582.219) rotate(36.549)" fill="#6b2eca"/>
        <path d="M1344.752,685.261a70.621,70.621,0,1,0-51.017,85.865A70.624,70.624,0,0,0,1344.752,685.261Zm-55.4,68.636a52.843,52.843,0,1,1,38.161-64.247A52.842,52.842,0,0,1,1289.354,753.9Z" fill="#ffaa40"/>
        <rect x="1185.371" y="750.089" width="25.311" height="103.001" rx="5.789" transform="translate(712.952 -555.804) rotate(36.549)" fill="#494e6d"/>
        <g opacity="0.33">
          <g clip-path="url(#a)">
            <g>
              <rect x="1271.394" y="654.601" width="19.63" height="146.266" transform="translate(1995.519 -561.006) rotate(89.401)" fill="#fff"/>
              <rect x="1275.553" y="628.736" width="2.356" height="146.266" transform="translate(1965.225 -582.124) rotate(89.401)" fill="#fff"/>
            </g>
          </g>
        </g>
      </g>
      <rect x="926.26" y="755.163" width="32.308" height="2.538" transform="translate(-258.852 887.941) rotate(-45)" fill="#251138"/>
      <rect x="684.133" y="835.043" width="2.539" height="25.542" transform="translate(-306.794 396.027) rotate(-26.565)" fill="#251138"/>
      <rect x="918.299" y="811.008" width="2.538" height="34.268" fill="#251138"/>
    </g>
    <rect x="293.856" y="1693.097" width="1507.801" height="11.423" rx="5.711" fill="#5f6386"/>
  </g>
</svg>
